<svg id="Layer_1" data-name="Layer 1" xmlns="http://www.w3.org/2000/svg" width="212" height="80" viewBox="0 0 212 80"><defs><style>.cls-1{fill:#424242;}.cls-2{fill:#fff;stroke:#00639e;stroke-miterlimit:10;stroke-width:0.85px;}.cls-3{fill:#00639e;}</style></defs><title>Artboard 1</title><path class="cls-1" d="M46.47,74.14a5.35,5.35,0,0,1-.15,1.3,2.61,2.61,0,0,1-.53,1.05,2.54,2.54,0,0,1-1,.71,4.3,4.3,0,0,1-1.61.26,4.4,4.4,0,0,1-1.57-.25,3.81,3.81,0,0,1-1-.54l.62-1.36a4.92,4.92,0,0,0,.84.45,2.58,2.58,0,0,0,1,.21,1.64,1.64,0,0,0,1.27-.44,2.24,2.24,0,0,0,.4-1.51V67.77h1.74Z"/><path class="cls-1" d="M54.32,77.26q-.19-.56-.4-1.11T53.52,75h-4q-.19.58-.39,1.13l-.39,1.1h-1.8q.53-1.52,1-2.81T48.88,72q.46-1.15.91-2.19t.93-2.06h1.65q.48,1,.93,2.06T54.22,72q.46,1.15.95,2.44t1,2.81Zm-2.8-7.66q-.31.73-.72,1.77T50,73.63h3.12q-.44-1.22-.85-2.27T51.52,69.61Z"/><path class="cls-1" d="M60.81,77.47a5.29,5.29,0,0,1-1.92-.33,3.8,3.8,0,0,1-1.44-1,4.32,4.32,0,0,1-.9-1.56,6.48,6.48,0,0,1-.32-2.11,5.71,5.71,0,0,1,.36-2.11,4.56,4.56,0,0,1,1-1.55,4.19,4.19,0,0,1,1.48-1,5,5,0,0,1,1.82-.33,5.86,5.86,0,0,1,1.07.09,7.84,7.84,0,0,1,.84.2,3.49,3.49,0,0,1,.59.23l.33.18-.51,1.41a4,4,0,0,0-.94-.39,4.51,4.51,0,0,0-1.32-.19,3.09,3.09,0,0,0-1.15.21,2.49,2.49,0,0,0-.92.64A3,3,0,0,0,58.26,71,4.64,4.64,0,0,0,58,72.5a5.27,5.27,0,0,0,.17,1.38A3.07,3.07,0,0,0,58.74,75a2.41,2.41,0,0,0,.9.71,3.11,3.11,0,0,0,1.32.25,5,5,0,0,0,1.49-.18,6,6,0,0,0,.89-.35l.47,1.41a2.33,2.33,0,0,1-.45.22,6.38,6.38,0,0,1-.66.21,6.64,6.64,0,0,1-.86.16A8.1,8.1,0,0,1,60.81,77.47Z"/><path class="cls-1" d="M73.09,72.51a5.9,5.9,0,0,1-.36,2.15,4.46,4.46,0,0,1-1,1.56,4.08,4.08,0,0,1-1.46.94,5,5,0,0,1-1.78.31,5.06,5.06,0,0,1-1.79-.31,4.06,4.06,0,0,1-1.47-.94,4.53,4.53,0,0,1-1-1.56,6.41,6.41,0,0,1,0-4.29,4.51,4.51,0,0,1,1-1.55,4.16,4.16,0,0,1,1.47-.95,5.12,5.12,0,0,1,3.53,0,4,4,0,0,1,1.46.95,4.62,4.62,0,0,1,1,1.55A5.75,5.75,0,0,1,73.09,72.51Zm-7.41,0a4.91,4.91,0,0,0,.19,1.42A3.11,3.11,0,0,0,66.42,75a2.52,2.52,0,0,0,.88.69,2.72,2.72,0,0,0,1.18.25,2.69,2.69,0,0,0,1.16-.25,2.52,2.52,0,0,0,.88-.69,3.11,3.11,0,0,0,.56-1.08,5.33,5.33,0,0,0,0-2.84A3.11,3.11,0,0,0,70.53,70a2.51,2.51,0,0,0-.88-.69,2.68,2.68,0,0,0-1.16-.25,2.71,2.71,0,0,0-1.18.25,2.49,2.49,0,0,0-.88.7,3.2,3.2,0,0,0-.55,1.08A4.83,4.83,0,0,0,65.68,72.51Z"/><path class="cls-1" d="M77.29,77.37q-.75,0-1.52,0a7.1,7.1,0,0,1-1.34-.2V67.91l.64-.1.7-.08.71,0h.66a9.35,9.35,0,0,1,1.6.13,4.09,4.09,0,0,1,1.28.43,2.25,2.25,0,0,1,.84.79,2.3,2.3,0,0,1,.3,1.22,2,2,0,0,1-.32,1.15,2.28,2.28,0,0,1-.9.77,2.49,2.49,0,0,1,1.27.85,2.35,2.35,0,0,1,.41,1.42,2.49,2.49,0,0,1-1.07,2.2A5.85,5.85,0,0,1,77.29,77.37Zm-1.16-5.74h1.22a3.51,3.51,0,0,0,1.55-.28,1,1,0,0,0,.56-1,1,1,0,0,0-.58-1,3.42,3.42,0,0,0-1.51-.29h-.71l-.53,0Zm0,1.36v2.89l.62,0h.6a6.71,6.71,0,0,0,1-.07,2.59,2.59,0,0,0,.79-.24,1.41,1.41,0,0,0,.53-.46,1.27,1.27,0,0,0,.2-.74,1.16,1.16,0,0,0-.59-1.12A3.5,3.5,0,0,0,77.65,73Z"/><path class="cls-1" d="M88.93,76a2.3,2.3,0,0,0,1.36-.32,1,1,0,0,0,.42-.89,1.15,1.15,0,0,0-.14-.59,1.51,1.51,0,0,0-.41-.45,3.53,3.53,0,0,0-.65-.37q-.38-.17-.88-.33t-1-.39a3.21,3.21,0,0,1-.81-.53,2.3,2.3,0,0,1-.77-1.81,2.48,2.48,0,0,1,.89-2,3.7,3.7,0,0,1,2.42-.73,5.77,5.77,0,0,1,1.58.2,4.88,4.88,0,0,1,1.09.43l-.53,1.4a4.13,4.13,0,0,0-1-.4A4.78,4.78,0,0,0,89.38,69a1.8,1.8,0,0,0-1.09.29.94.94,0,0,0-.39.81,1.07,1.07,0,0,0,.13.54,1.33,1.33,0,0,0,.37.4,3.22,3.22,0,0,0,.56.33q.32.15.71.29.67.25,1.2.5a3.39,3.39,0,0,1,.89.6,2.36,2.36,0,0,1,.56.82,3,3,0,0,1,.19,1.14,2.37,2.37,0,0,1-.91,2,4.29,4.29,0,0,1-2.67.71,7,7,0,0,1-1.08-.08,6.77,6.77,0,0,1-.86-.18,5.79,5.79,0,0,1-.65-.23,4,4,0,0,1-.44-.21l.51-1.41a5.93,5.93,0,0,0,1,.41A5,5,0,0,0,88.93,76Z"/><path class="cls-1" d="M100.07,77.26q-.19-.56-.4-1.11T99.27,75h-4q-.19.58-.39,1.13l-.39,1.1h-1.8q.53-1.52,1-2.81T94.63,72q.46-1.15.91-2.19t.93-2.06h1.65q.48,1,.93,2.06T100,72q.46,1.15.95,2.44t1,2.81Zm-2.8-7.66q-.31.73-.72,1.77t-.84,2.26h3.12q-.44-1.22-.85-2.27T97.26,69.61Z"/><path class="cls-1" d="M109.06,77.26q-.4-.75-1-1.65t-1.26-1.73q-.27.33-.59.78l-.64.93q-.32.47-.59.91t-.44.76h-2q.63-1.14,1.46-2.34t1.79-2.51l-3.11-4.64h2.06l2.08,3.12,2.09-3.12h2l-3.08,4.59q1.06,1.39,1.89,2.63t1.38,2.27Z"/><path class="cls-1" d="M119.19,67.77v1.49h-2.92v8h-1.74v-8h-2.92V67.77Z"/><path class="cls-1" d="M128.73,72.51a5.9,5.9,0,0,1-.36,2.15,4.46,4.46,0,0,1-1,1.56,4.08,4.08,0,0,1-1.46.94,5,5,0,0,1-1.78.31,5.06,5.06,0,0,1-1.79-.31,4.06,4.06,0,0,1-1.47-.94,4.53,4.53,0,0,1-1-1.56,6.41,6.41,0,0,1,0-4.29,4.51,4.51,0,0,1,1-1.55,4.16,4.16,0,0,1,1.47-.95,5.12,5.12,0,0,1,3.53,0,4,4,0,0,1,1.46.95,4.62,4.62,0,0,1,1,1.55A5.75,5.75,0,0,1,128.73,72.51Zm-7.41,0a4.91,4.91,0,0,0,.19,1.42,3.11,3.11,0,0,0,.55,1.08,2.52,2.52,0,0,0,.88.69,2.72,2.72,0,0,0,1.18.25,2.69,2.69,0,0,0,1.16-.25,2.52,2.52,0,0,0,.88-.69,3.11,3.11,0,0,0,.56-1.08,5.33,5.33,0,0,0,0-2.84,3.11,3.11,0,0,0-.56-1.08,2.51,2.51,0,0,0-.88-.69,2.68,2.68,0,0,0-1.16-.25,2.71,2.71,0,0,0-1.18.25,2.49,2.49,0,0,0-.88.7,3.2,3.2,0,0,0-.55,1.08A4.83,4.83,0,0,0,121.31,72.51Z"/><path class="cls-1" d="M136.47,77.26q-.47-.78-1-1.68t-1.19-1.81q-.62-.91-1.25-1.77t-1.21-1.54v6.8h-1.7v-9.5h1.41q.55.58,1.18,1.36t1.27,1.64q.64.85,1.23,1.71t1.06,1.6v-6.3h1.71v9.5Z"/><path class="cls-1" d="M140.95,75.67a2.84,2.84,0,0,1,0,.3v.19a5.39,5.39,0,0,1-.23,1.54,6.57,6.57,0,0,1-.65,1.5l-1.14-.31a5.92,5.92,0,0,0,.39-1.36,7.86,7.86,0,0,0,.1-1.17q0-.14,0-.36c0-.14,0-.25,0-.32Z"/><path class="cls-1" d="M152.59,73.1a4.81,4.81,0,0,1-.34,1.88,3.53,3.53,0,0,1-1,1.33,4,4,0,0,1-1.49.79,6.76,6.76,0,0,1-1.93.26q-.5,0-1.14,0a7.73,7.73,0,0,1-1.21-.17V69.07a7.34,7.34,0,0,1,1.22-.17q.65,0,1.15,0a7,7,0,0,1,1.91.25,3.93,3.93,0,0,1,1.48.77,3.43,3.43,0,0,1,1,1.32A4.88,4.88,0,0,1,152.59,73.1ZM147,76l.35,0H148a3,3,0,0,0,2.27-.77,3.55,3.55,0,0,0,0-4.34,3,3,0,0,0-2.27-.76,8.7,8.7,0,0,0-1,0Z"/><path class="cls-1" d="M160.82,73.1a4.82,4.82,0,0,1-.34,1.88,3.54,3.54,0,0,1-1,1.33,4,4,0,0,1-1.49.79,6.77,6.77,0,0,1-1.93.26q-.5,0-1.14,0a7.74,7.74,0,0,1-1.21-.17V69.07A7.34,7.34,0,0,1,155,68.9q.65,0,1.15,0a7,7,0,0,1,1.91.25,3.92,3.92,0,0,1,1.48.77,3.44,3.44,0,0,1,1,1.32A4.89,4.89,0,0,1,160.82,73.1ZM155.28,76l.35,0h.59a3,3,0,0,0,2.27-.77,3.55,3.55,0,0,0,0-4.34,3,3,0,0,0-2.27-.76,8.69,8.69,0,0,0-1,0Z"/><path class="cls-1" d="M164.14,76.14a2,2,0,0,0,1.19-.28.91.91,0,0,0,.37-.78,1,1,0,0,0-.13-.52,1.32,1.32,0,0,0-.36-.39,3,3,0,0,0-.57-.32c-.22-.1-.48-.2-.77-.29s-.57-.22-.83-.34a2.81,2.81,0,0,1-.71-.46,2.14,2.14,0,0,1-.49-.66,2.1,2.1,0,0,1-.19-.92,2.17,2.17,0,0,1,.78-1.77,3.25,3.25,0,0,1,2.12-.64,5,5,0,0,1,1.39.17,4.29,4.29,0,0,1,1,.38l-.47,1.22a3.6,3.6,0,0,0-.89-.35,4.16,4.16,0,0,0-1-.12,1.58,1.58,0,0,0-1,.25.83.83,0,0,0-.34.71.94.94,0,0,0,.11.47,1.17,1.17,0,0,0,.32.35,2.78,2.78,0,0,0,.49.29q.28.13.62.25.59.22,1,.44a3,3,0,0,1,.78.53,2.06,2.06,0,0,1,.49.72,2.65,2.65,0,0,1,.17,1,2.08,2.08,0,0,1-.8,1.75,3.75,3.75,0,0,1-2.33.62,6.18,6.18,0,0,1-.94-.07,6.09,6.09,0,0,1-.76-.16,5.14,5.14,0,0,1-.57-.2,3.42,3.42,0,0,1-.38-.19l.44-1.24a5.11,5.11,0,0,0,.88.36A4.36,4.36,0,0,0,164.14,76.14Z"/><rect class="cls-2" x="49.38" y="46.75" width="155.56" height="13.48" rx="3" ry="3"/><path class="cls-3" d="M43.82,14.4q1.63,0,5.74-.1t6.22-.1q0,.41,1.07,6.09a1.2,1.2,0,0,1-.85.21.49.49,0,0,1-.52-.29,6.71,6.71,0,0,0-2.22-2.67,5,5,0,0,0-3-1.11H48.89q-2.33,0-2.41.53a19.43,19.43,0,0,0-.19,3.21v6.33q0,.25,1.59.25h2a8.89,8.89,0,0,0,2.52-.16,2.43,2.43,0,0,0,.3-1.19,9.16,9.16,0,0,1,.22-1.19c0-.19.21-.29.56-.29a1.13,1.13,0,0,1,.81.21v7.77q-.15.16-.78.16c-.32,0-.52-.11-.59-.33l-.26-1q-.11-.41-.19-.62a2.57,2.57,0,0,0-.17-.37,1.59,1.59,0,0,0-.13-.21.63.63,0,0,0-.15-.1.59.59,0,0,1-.15-.1A7,7,0,0,0,49,29q-2.66,0-2.66.37V35.7a10.54,10.54,0,0,0,.3,2.92q.19.66,2.52.66h1a8.13,8.13,0,0,0,4.14-1.07,5.57,5.57,0,0,0,1.42-1.4,8.07,8.07,0,0,0,1.24-2.3q0-.25.52-.25.89,0,1.11.25a60.33,60.33,0,0,0-2,7.07q-1.89,0-6-.08t-6.66-.08l-5.4.25a1.12,1.12,0,0,1-.15-.7q0-.82.15-.82a5.37,5.37,0,0,0,1.39-.29q.94-.29,1.05-.62a19,19,0,0,0,.22-3.62V20.07a15.91,15.91,0,0,0-.22-3.21q-.11-.33-1.09-.74a4.34,4.34,0,0,0-1.39-.41q-.15,0-.15-.74a1.53,1.53,0,0,1,.11-.78Q41.34,14.4,43.82,14.4Z"/><path class="cls-3" d="M59.82,21.39a6.78,6.78,0,0,1,2.46-5.26,8,8,0,0,1,5.42-2.18,11,11,0,0,1,1.61.12q.83.12,1.41.25t1.59.39q1,.27,1.61.39.41,4,.41,6.83a.55.55,0,0,1-.56.41q-1.07,0-1.15-.29A8.57,8.57,0,0,0,71,18.12a3.94,3.94,0,0,0-3.29-1.87,2.9,2.9,0,0,0-2.13.86,3.75,3.75,0,0,0-.87,2.76,3.7,3.7,0,0,0,.37,1.6,5.54,5.54,0,0,0,1.24,1.6,16.32,16.32,0,0,0,1.42,1.23l1.81,1.32.52.37,1.22.82q.92.62,1.31.93a12.93,12.93,0,0,1,1.07,1,5.07,5.07,0,0,1,1,1.38,9.59,9.59,0,0,1,.57,1.77,10.45,10.45,0,0,1,.26,2.41,7,7,0,0,1-2.44,5.45,8.25,8.25,0,0,1-5.63,2.16,28.64,28.64,0,0,1-7-1.07q-.3-1.32-.57-3.6A31.08,31.08,0,0,1,59.6,34q.11-.41.67-.41,1.15,0,1.18.25a8.07,8.07,0,0,0,1.85,3.8,4.43,4.43,0,0,0,3.44,1.91q3.66,0,3.66-4.48a3.1,3.1,0,0,0-.33-1.38,5,5,0,0,0-1-1.34,15.22,15.22,0,0,0-1.18-1.07q-.52-.41-1.46-1.07t-1.2-.86L64.67,29q-1.22-.9-1.85-1.44A14.73,14.73,0,0,1,61.36,26,5.66,5.66,0,0,1,60.18,24,8.64,8.64,0,0,1,59.82,21.39Z"/><path class="cls-3" d="M84,14.35q2.5.12,4.05.12t4.07-.12q2.52-.12,4.07-.12a10.21,10.21,0,0,0,2.55-.45l.7,6.74a1.46,1.46,0,0,1-1.07.29c-.22,0-.35-.07-.37-.21q-.93-4.07-4-4.07t-3.15.74a16.13,16.13,0,0,0-.3,3.66V35.78a15.16,15.16,0,0,0,.3,3.33q.07.29,1,.66a4.47,4.47,0,0,0,1.28.37c.1,0,.15.26.15.78a2.75,2.75,0,0,1-.07.74q-.26,0-2.22-.16t-2.92-.16q-1,0-2.92.14l-2.44.18A1,1,0,0,1,82.6,41q0-.86.11-.86a4.74,4.74,0,0,0,1.37-.35q1-.35,1.07-.68a14.82,14.82,0,0,0,.26-3.17V21.06a12.78,12.78,0,0,0-.3-3.78,1.43,1.43,0,0,0-.2-.35,2.19,2.19,0,0,0-.8-.25,10.87,10.87,0,0,0-2-.14,3.43,3.43,0,0,0-2.48.93,6.29,6.29,0,0,0-1.48,3.1c0,.14-.15.21-.37.21a1.46,1.46,0,0,1-1.07-.29l.7-6.7a10.2,10.2,0,0,0,2.55.45Q81.49,14.23,84,14.35Z"/><path class="cls-3" d="M117.52,35.82V29l-.07-.16q-3.48-.08-4.33-.08-4.59,0-4.59.12l.07.08v6.74a15.91,15.91,0,0,0,.3,3.45q.07.29,1,.66a4.47,4.47,0,0,0,1.28.37q.15,0,.17.62a2.5,2.5,0,0,1-.09.9L109,41.49q-2.09-.16-3.05-.16t-2.79.14l-2.39.18a1.12,1.12,0,0,1-.15-.7q0-.82.07-.82a5,5,0,0,0,1.41-.33q1-.33,1.07-.66a15.84,15.84,0,0,0,.26-3.33V20.11a11.91,11.91,0,0,0-.26-3.21,1.7,1.7,0,0,0-1-.78,4,4,0,0,0-1.3-.33c-.1,0-.15-.27-.15-.82a1.65,1.65,0,0,1,.07-.7l5.14.25q1,0,5.4-.25a2.15,2.15,0,0,1,.11.86c0,.44,0,.66-.15.66a4.88,4.88,0,0,0-1.3.35q-1,.35-1.07.64a13.05,13.05,0,0,0-.3,3.5v5.84l.07.12q3.63.08,4.44.08,1,0,4.33-.08a.25.25,0,0,0,.07-.16v-6a15.31,15.31,0,0,0-.26-3.25q-.11-.33-1-.7a4.06,4.06,0,0,0-1.31-.37q-.15,0-.17-.68a1.41,1.41,0,0,1,.13-.84q5.11.25,5.51.25t5-.25a2.57,2.57,0,0,1,.11.74c0,.52-.06.78-.18.78a4.88,4.88,0,0,0-1.3.35q-1,.35-1,.64a15.86,15.86,0,0,0-.3,3.5V35.65a16.19,16.19,0,0,0,.3,3.5q.07.29,1,.62a4.89,4.89,0,0,0,1.28.33q.15,0,.15.86a2.44,2.44,0,0,1-.11.7q-.33,0-2.18-.16t-2.81-.16q-1,0-3,.14l-2.5.18a1.41,1.41,0,0,1-.13-.84c0-.45.07-.68.17-.68a4.53,4.53,0,0,0,1.37-.37q1-.37,1.07-.7A16.19,16.19,0,0,0,117.52,35.82Z"/><path class="cls-3" d="M133.06,14.4q1.63,0,5.74-.1t6.22-.1q0,.41,1.07,6.09a1.2,1.2,0,0,1-.85.21.49.49,0,0,1-.52-.29,6.7,6.7,0,0,0-2.22-2.67,5,5,0,0,0-3-1.11h-1.41q-2.33,0-2.41.53a19.49,19.49,0,0,0-.18,3.21v6.33q0,.25,1.59.25h2a8.9,8.9,0,0,0,2.52-.16,2.43,2.43,0,0,0,.3-1.19,9.16,9.16,0,0,1,.22-1.19c0-.19.21-.29.56-.29a1.13,1.13,0,0,1,.81.21v7.77c-.1.11-.36.16-.78.16s-.52-.11-.59-.33l-.26-1c-.07-.27-.14-.48-.19-.62a2.53,2.53,0,0,0-.17-.37,1.57,1.57,0,0,0-.13-.21.63.63,0,0,0-.15-.1.59.59,0,0,1-.15-.1,7,7,0,0,0-2.89-.33q-2.66,0-2.66.37V35.7a10.56,10.56,0,0,0,.3,2.92q.19.66,2.52.66h1a8.13,8.13,0,0,0,4.14-1.07,5.58,5.58,0,0,0,1.42-1.4,8.06,8.06,0,0,0,1.24-2.3q0-.25.52-.25.89,0,1.11.25a60.46,60.46,0,0,0-2,7.07q-1.89,0-6-.08t-6.66-.08l-5.4.25a1.13,1.13,0,0,1-.15-.7q0-.82.15-.82a5.37,5.37,0,0,0,1.39-.29q.94-.29,1.05-.62a19,19,0,0,0,.22-3.62V20.07a15.94,15.94,0,0,0-.22-3.21q-.11-.33-1.09-.74a4.34,4.34,0,0,0-1.39-.41c-.1,0-.15-.25-.15-.74a1.54,1.54,0,0,1,.11-.78Q130.58,14.4,133.06,14.4Z"/><path class="cls-3" d="M155.36,14.35q2.5.12,4.05.12t4.07-.12q2.52-.12,4.07-.12a10.21,10.21,0,0,0,2.55-.45l.7,6.74a1.46,1.46,0,0,1-1.07.29c-.22,0-.35-.07-.37-.21q-.93-4.07-4-4.07t-3.15.74a16.13,16.13,0,0,0-.3,3.66V35.78a15.16,15.16,0,0,0,.3,3.33q.07.29,1,.66a4.46,4.46,0,0,0,1.28.37c.1,0,.15.26.15.78a2.75,2.75,0,0,1-.07.74q-.26,0-2.22-.16t-2.92-.16q-1,0-2.92.14l-2.44.18A1,1,0,0,1,154,41q0-.86.11-.86a4.73,4.73,0,0,0,1.37-.35q1-.35,1.07-.68a14.76,14.76,0,0,0,.26-3.17V21.06a12.78,12.78,0,0,0-.3-3.78,1.43,1.43,0,0,0-.2-.35,2.19,2.19,0,0,0-.8-.25,10.87,10.87,0,0,0-2-.14,3.43,3.43,0,0,0-2.48.93,6.29,6.29,0,0,0-1.48,3.1c0,.14-.15.21-.37.21a1.46,1.46,0,0,1-1.07-.29l.7-6.7a10.21,10.21,0,0,0,2.55.45Q152.86,14.23,155.36,14.35Z"/><path class="cls-3" d="M174.79,20a9.75,9.75,0,0,0-.3-3.21,2.14,2.14,0,0,0-1-.68,3.81,3.81,0,0,0-1.26-.35c-.1,0-.15-.23-.15-.7a2.2,2.2,0,0,1,.07-.82l1.78.14q1.22.1,1.83.12t1.76,0q.74,0,5.18-.25a2.57,2.57,0,0,1,.11.74q0,.78-.15.78a5.27,5.27,0,0,0-1.33.35q-1,.35-1.07.64a10.75,10.75,0,0,0-.19,1.38q-.07.88-.07,1.5V35.49a16.89,16.89,0,0,0,.3,3.62q.07.29,1,.66a4.47,4.47,0,0,0,1.28.37c.1,0,.15.26.15.78a2.75,2.75,0,0,1-.07.74q-.26,0-2.22-.16t-2.92-.16q-1,0-2.92.14l-2.44.18A1,1,0,0,1,172,41q0-.86.11-.86a4.74,4.74,0,0,0,1.37-.35q1-.35,1.07-.68a15.61,15.61,0,0,0,.26-3.29Z"/><path class="cls-3" d="M205.68,34.09a23.47,23.47,0,0,1-.57,3.21q-.58,2.63-.94,2.8a21.94,21.94,0,0,1-8.33,1.69,10.71,10.71,0,0,1-8.36-4A14,14,0,0,1,184,28.25a15.08,15.08,0,0,1,3.5-10,10.92,10.92,0,0,1,8.71-4.17,32.69,32.69,0,0,1,8.47,1.19,8.68,8.68,0,0,1,.46,2.76q.28,2.71.28,3.33t-1,.62l-.59-.12a7.27,7.27,0,0,0-.61-1.56A9,9,0,0,0,202,18.51,6,6,0,0,0,199.66,17a8.62,8.62,0,0,0-3.28-.6q-6.62,0-6.62,11a17,17,0,0,0,2,8.66,6.36,6.36,0,0,0,5.77,3.52,6.17,6.17,0,0,0,4.74-2.22,5.15,5.15,0,0,0,.87-1.46q.39-.93.59-1.56a2.53,2.53,0,0,1,.24-.64Q205.53,33.68,205.68,34.09Z"/><path class="cls-3" d="M58.62,58.15V49.21h5.82v1.07H60V53h4V54H60v4.11Z"/><path class="cls-3" d="M72.74,58.15q-.24-.58-.45-1.14l-.43-1.14H67.49l-.88,2.28H65.21q.56-1.42,1-2.62t1-2.29q.47-1.08.93-2.07t1-2h1.24q.5,1,1,2t.93,2.07q.47,1.08,1,2.29t1,2.62Zm-1.27-3.31q-.45-1.12-.88-2.17t-.91-2q-.49,1-.93,2t-.87,2.17Z"/><path class="cls-3" d="M81,56.91l-.37-.79-.49-1q-.26-.55-.56-1.14L79,52.84q-.26-.52-.49-.93t-.37-.63q-.15,1.52-.25,3.29t-.17,3.58H76.37q.06-1.16.13-2.34t.16-2.32q.09-1.14.2-2.22t.23-2h1.18q.38.57.81,1.34t.86,1.62q.43.84.84,1.69l.74,1.54.74-1.54q.4-.84.84-1.69t.86-1.62q.43-.77.81-1.34h1.18q.47,4.32.71,8.93H85.32q-.07-1.81-.17-3.58t-.25-3.29q-.14.22-.37.63t-.49.93l-.56,1.11q-.3.59-.56,1.14l-.49,1-.37.79Z"/><path class="cls-3" d="M89.87,49.21h1.35v8.93H89.87Z"/><path class="cls-3" d="M100.54,57.06v1.08H94.73V49.21h1.35v7.85Z"/><path class="cls-3" d="M103.77,58.15V54.56q-1-1.38-1.81-2.72t-1.6-2.63h1.59q.53,1.06,1.18,2.15t1.35,2.09q.68-1,1.34-2.09t1.2-2.15h1.5q-.75,1.29-1.6,2.62t-1.8,2.7v3.61Z"/><path class="cls-3" d="M123.72,53.67a4.84,4.84,0,0,1-.39,2,3.76,3.76,0,0,1-1.1,1.42,4.8,4.8,0,0,1-1.7.84,8,8,0,0,1-2.17.28q-.58,0-1.29,0a8.14,8.14,0,0,1-1.27-.17V49.34a8.24,8.24,0,0,1,1.27-.17q.7,0,1.29,0a8,8,0,0,1,2.17.28,4.8,4.8,0,0,1,1.7.84,3.75,3.75,0,0,1,1.1,1.42A4.84,4.84,0,0,1,123.72,53.67Zm-5.25,3.45a4,4,0,0,0,2.87-.91,3.9,3.9,0,0,0,0-5.09,4,4,0,0,0-2.87-.91h-.88l-.44,0v6.83l.44,0Z"/><path class="cls-3" d="M126.83,58.15V49.21h5.89v1.07h-4.54v2.66h4v1h-4v3.09h4.89v1.07Z"/><path class="cls-3" d="M142.79,58.15l-.7-1.07q-.4-.59-.86-1.23l-1-1.29q-.49-.66-1-1.27t-.95-1.15q-.46-.54-.85-1v7h-1.32V49.21h1.07q.65.64,1.4,1.5t1.48,1.77q.73.91,1.38,1.79t1.09,1.56V49.21h1.32v8.93Z"/><path class="cls-3" d="M153.87,49.21V50.3h-3v7.85h-1.35V50.3h-3V49.21Z"/><path class="cls-3" d="M156.4,49.21h1.35v8.93H156.4Z"/><path class="cls-3" d="M163.78,57.26q2.12,0,2.12-1.34a1.26,1.26,0,0,0-.19-.7,1.73,1.73,0,0,0-.51-.5,3.62,3.62,0,0,0-.73-.37L163.6,54a9.21,9.21,0,0,1-1-.38,3.54,3.54,0,0,1-.82-.5,2.15,2.15,0,0,1-.55-.69,2.13,2.13,0,0,1-.2-1,2.17,2.17,0,0,1,.86-1.83,3.85,3.85,0,0,1,2.38-.66,6.77,6.77,0,0,1,1.59.17,3.84,3.84,0,0,1,1.05.38l-.43,1a4,4,0,0,0-.87-.33,5,5,0,0,0-1.34-.16,3.23,3.23,0,0,0-.72.08,2,2,0,0,0-.58.23,1.19,1.19,0,0,0-.4.39,1.05,1.05,0,0,0-.15.56,1.12,1.12,0,0,0,.15.61,1.46,1.46,0,0,0,.43.43,3.86,3.86,0,0,0,.65.34q.37.15.81.31.63.23,1.15.46a3.79,3.79,0,0,1,.9.55,2.24,2.24,0,0,1,.59.77,2.52,2.52,0,0,1,.21,1.08,2.06,2.06,0,0,1-.93,1.81,4.6,4.6,0,0,1-2.61.63,7.26,7.26,0,0,1-1.05-.07,8.2,8.2,0,0,1-.86-.17,5.13,5.13,0,0,1-.65-.21l-.42-.19.4-1a6.29,6.29,0,0,0,1,.37A5.37,5.37,0,0,0,163.78,57.26Z"/><path class="cls-3" d="M176.5,49.21V50.3h-3v7.85h-1.35V50.3h-3V49.21Z"/><path class="cls-3" d="M183.76,54.41l.56.68q.34.42.7.93t.72,1.06a10.63,10.63,0,0,1,.61,1.07h-1.48q-.28-.49-.61-1t-.66-1q-.33-.46-.66-.86l-.59-.7h-2v3.49H179v-8.8a8.23,8.23,0,0,1,1.27-.17q.7,0,1.29,0a5.6,5.6,0,0,1,3.1.71,2.59,2.59,0,0,1,.56,3.63A3,3,0,0,1,183.76,54.41Zm-2-4.19q-.86,0-1.32,0v3.36h1a11,11,0,0,0,1.25-.06,3,3,0,0,0,.94-.25,1.38,1.38,0,0,0,.59-.51,1.6,1.6,0,0,0,.21-.87,1.56,1.56,0,0,0-.21-.84,1.5,1.5,0,0,0-.56-.53,2.6,2.6,0,0,0-.83-.27A6.39,6.39,0,0,0,181.71,50.22Z"/><path class="cls-3" d="M190.94,58.15V54.56q-1-1.38-1.81-2.72t-1.6-2.63h1.59q.53,1.06,1.18,2.15t1.35,2.09q.68-1,1.34-2.09t1.2-2.15h1.5q-.75,1.29-1.6,2.62t-1.8,2.7v3.61Z"/><path class="cls-3" d="M27.35,58.1a6.31,6.31,0,0,0,2.72-.66,2,2,0,0,0,1.39-1.77q0-.14-1.51-4.65L28.13,46c-.16-.18-.3-.28-.42-.28q-1.15-.07-5.8-.07-4,0-6.11.07c-.16,0-.3.12-.42.35l-2,5.27a14.91,14.91,0,0,0-1.21,4.23,1.92,1.92,0,0,0,1.09,1.73,5.33,5.33,0,0,0,1.9.73,11.41,11.41,0,0,0,1.42.1c.12,0,.18.42.18,1.11a6,6,0,0,1-.12,1.46l-3.17-.31q-2.39-.24-3.9-.24a32.6,32.6,0,0,0-3.63.24q-2.12.24-3.26.31a1.63,1.63,0,0,1-.24-1q0-1.46.12-1.46A7.29,7.29,0,0,0,5,57.44,4.33,4.33,0,0,0,7.1,55.95a18.51,18.51,0,0,0,1-2q.51-1.21.82-2l.3-.83L22.57,15.83A2.33,2.33,0,0,1,24.81,14a1.64,1.64,0,0,1,1.45.9L38.65,50.12q1.15,3.19,2,5.69a2.93,2.93,0,0,0,2,1.7,8,8,0,0,0,2.48.59q.24,0,.24,1.18a4.23,4.23,0,0,1-.12,1.39q-.24,0-3.72-.28t-5-.28q-.42,0-9.13.56a2.55,2.55,0,0,1-.24-1.42Q27.11,58.1,27.35,58.1ZM17.43,41.23a40.18,40.18,0,0,0,4.47.21q2.42,0,4.29-.14l.18-.35L22,28.53,17.31,41C17.31,41.14,17.35,41.23,17.43,41.23Z"/><circle class="cls-3" cx="177.37" cy="7.51" r="5.01"/></svg>